<svg width="977" height="1047" viewBox="0 0 977 1047" fill="none" xmlns="http://www.w3.org/2000/svg">
<g id="jack-in-box-svg">
<g id="box-back">
<path id="Vector" d="M836.44 153L828.932 160.231L747.26 238.937L608.802 372.367L615.324 943.513L88.6881 813.853V435.831L287.353 206.809L836.44 153Z" fill="#975656"/>
<path id="Vector_2" opacity="0.1" d="M836.44 153L828.932 160.231L747.26 238.937L608.802 372.367L615.324 943.513L88.6881 813.853V435.831L287.353 206.809L836.44 153Z" fill="black"/>
<path id="Vector_3" d="M893 515.852L877.83 903.528L334.258 986.312L88.6881 813.852V441.346L608.802 372.367L893 515.852Z" fill="#975656"/>
<path id="Vector_4" d="M892.312 515.852L877.132 903.528L333.57 986.312L88 813.852V441.346L608.114 372.367L892.312 515.852Z" fill="#975656"/>
<path id="Vector_5" opacity="0.1" d="M828.932 160.231L747.26 238.937L353.577 282.691L283.213 213.701L828.932 160.231Z" fill="black"/>
<path id="Vector_6" opacity="0.1" d="M608.802 372.367L614.317 947.683L877.83 903.528L893 515.852L608.802 372.367Z" fill="black"/>
<path id="Vector_7" d="M893 515.852L786.771 506.187L531.598 379.844L608.802 372.367L893 515.852Z" fill="#975656"/>
<path id="Vector_8" d="M287.353 206.809L357.716 275.789L829.538 223.366L836.44 153L287.353 206.809Z" fill="#975656"/>
</g>
<g id="tripper-guy">
<path id="Vector_9" d="M453.054 443.015C482.783 443.015 506.884 418.914 506.884 389.185C506.884 359.455 482.783 335.354 453.054 335.354C423.324 335.354 399.223 359.455 399.223 389.185C399.223 418.914 423.324 443.015 453.054 443.015Z" fill="#373E46"/>
<path id="Vector_10" d="M761.87 460.958C791.6 460.958 815.701 436.858 815.701 407.128C815.701 377.398 791.6 353.298 761.87 353.298C732.141 353.298 708.04 377.398 708.04 407.128C708.04 436.858 732.141 460.958 761.87 460.958Z" fill="#373E46"/>
<path id="Vector_11" d="M762.815 351.409C752.475 351.409 742.354 354.387 733.662 359.987C724.97 365.587 718.075 373.572 713.802 382.988C723.017 374.779 734.773 369.987 747.1 369.413C759.428 368.84 771.578 372.52 781.515 379.838C791.452 387.155 798.573 397.665 801.685 409.607C804.796 421.549 803.71 434.198 798.606 445.434C806.758 438.179 812.511 428.618 815.104 418.019C817.697 407.419 817.006 396.281 813.124 386.083C809.242 375.885 802.352 367.107 793.367 360.915C784.382 354.722 773.727 351.407 762.815 351.409V351.409Z" fill="#00BFA6"/>
<path id="Vector_12" d="M452.109 333.465C462.449 333.465 472.57 336.444 481.262 342.044C489.954 347.644 496.849 355.629 501.122 365.044C491.907 356.836 480.151 352.043 467.824 351.47C455.496 350.897 443.346 354.577 433.409 361.894C423.472 369.212 416.351 379.722 413.239 391.664C410.128 403.606 411.215 416.255 416.318 427.491C408.166 420.236 402.413 410.675 399.82 400.075C397.227 389.475 397.918 378.338 401.8 368.14C405.682 357.941 412.572 349.164 421.557 342.971C430.542 336.779 441.197 333.464 452.109 333.465V333.465Z" fill="#00BFA6"/>
<path id="Vector_13" d="M608.879 657.392C608.901 684.881 600.769 711.76 585.51 734.625C570.252 757.491 548.554 775.317 523.162 785.847C497.769 796.377 469.824 799.138 442.861 793.781C415.899 788.423 391.132 775.188 371.694 755.751C352.257 736.313 339.022 711.546 333.664 684.584C328.307 657.621 331.068 629.676 341.598 604.283C352.128 578.891 369.954 557.193 392.82 541.935C415.685 526.676 442.564 518.544 470.053 518.566C488.301 518.505 506.381 522.053 523.252 529.008C540.123 535.963 555.452 546.186 568.355 559.09C581.259 571.993 591.482 587.322 598.437 604.193C605.392 621.064 608.94 639.144 608.879 657.392Z" fill="#373E46"/>
<path id="Vector_14" d="M608.879 657.392C608.905 677.265 604.65 696.91 596.403 714.991C572.632 714.673 549.213 709.204 527.76 698.962C506.306 688.72 487.329 673.948 472.135 655.664C456.941 637.381 445.892 616.02 439.75 593.054C433.607 570.089 432.517 546.064 436.555 522.637C457.015 517.572 478.359 517.229 498.971 521.633C519.583 526.038 538.923 535.074 555.527 548.058C572.131 561.041 585.562 577.633 594.806 596.575C604.049 615.518 608.861 636.315 608.879 657.392V657.392Z" fill="#00BFA6"/>
<path id="Vector_15" d="M598.49 694.224C689.244 694.224 762.815 620.653 762.815 529.899C762.815 439.145 689.244 365.575 598.49 365.575C507.736 365.575 434.166 439.145 434.166 529.899C434.166 620.653 507.736 694.224 598.49 694.224Z" fill="#373E46"/>
<path id="Vector_16" d="M638.423 535.52C646.934 524.093 659.628 516.507 673.723 514.423C687.818 512.34 702.163 515.929 713.616 524.405C719.981 515.86 723.667 505.62 724.208 494.979C724.748 484.339 722.12 473.777 716.654 464.631C711.188 455.486 703.132 448.168 693.505 443.604C683.877 439.04 673.112 437.435 662.573 438.993C652.033 440.551 642.192 445.202 634.297 452.356C626.402 459.51 620.808 468.846 618.222 479.182C615.636 489.517 616.175 500.388 619.771 510.417C623.368 520.446 629.859 529.182 638.423 535.52V535.52Z" fill="white"/>
<path id="Vector_17" d="M512.819 545.908C521.33 534.481 534.024 526.895 548.118 524.811C562.213 522.728 576.559 526.317 588.012 534.793C594.377 526.249 598.063 516.008 598.603 505.367C599.144 494.727 596.515 484.165 591.05 475.02C585.584 465.874 577.528 458.556 567.9 453.992C558.273 449.428 547.508 447.823 536.968 449.381C526.429 450.939 516.588 455.59 508.693 462.744C500.798 469.898 495.203 479.234 492.617 489.57C490.032 499.906 490.571 510.776 494.167 520.805C497.763 530.834 504.254 539.571 512.819 545.908V545.908Z" fill="white"/>
<path id="eyeball-1" d="M548.437 511.956C559.39 511.956 568.27 503.076 568.27 492.123C568.27 481.17 559.39 472.291 548.437 472.291C537.484 472.291 528.605 481.17 528.605 492.123C528.605 503.076 537.484 511.956 548.437 511.956Z" fill="#373E46"/>
<path id="eyeball-2" d="M676.875 496.845C687.828 496.845 696.707 487.966 696.707 477.013C696.707 466.06 687.828 457.181 676.875 457.181C665.922 457.181 657.043 466.06 657.043 477.013C657.043 487.966 665.922 496.845 676.875 496.845Z" fill="#373E46"/>
<path id="Vector_18" d="M610.767 545.954C616.505 545.954 621.156 541.303 621.156 535.565C621.156 529.828 616.505 525.177 610.767 525.177C605.03 525.177 600.379 529.828 600.379 535.565C600.379 541.303 605.03 545.954 610.767 545.954Z" fill="#FF6584"/>
<path id="Vector_19" d="M454.943 829.622V783.941H439.832V829.622C435.413 831.185 431.588 834.08 428.882 837.907C426.176 841.734 424.722 846.306 424.722 850.993V850.993H470.053V850.993C470.052 846.306 468.599 841.734 465.893 837.907C463.187 834.08 459.361 831.185 454.943 829.622V829.622Z" fill="#373E46"/>
<path id="Vector_20" d="M510.662 829.622V783.941H495.551V829.622C491.133 831.185 487.307 834.08 484.601 837.907C481.895 841.734 480.442 846.306 480.441 850.993V850.993H525.772V850.993C525.771 846.306 524.318 841.734 521.612 837.907C518.906 834.08 515.081 831.185 510.662 829.622V829.622Z" fill="#373E46"/>
<path id="Vector_21" d="M531.308 381.334C524.462 370.31 519.863 357.362 521.288 344.464C522.713 331.566 531.162 318.98 543.6 315.284C556.039 311.588 571.448 319.246 573.792 332.008C586.251 310.468 605.958 294.055 629.397 285.699C640.268 281.868 654.715 280.999 661.001 290.661C664.113 295.442 664.445 301.944 668.613 305.839C675.146 311.946 685.623 307.645 694.55 308.167C707.105 308.901 717.212 320.618 718.794 333.095C720.375 345.571 714.849 358.109 706.693 367.682C698.536 377.255 687.926 384.356 677.461 391.331" fill="#373E46"/>
<path id="Vector_22" d="M628.831 573.602C629.508 572.887 630.206 572.195 630.935 571.534C631.258 571.242 631.586 570.956 631.919 570.675C632.127 570.5 632.336 570.327 632.548 570.157C632.914 569.862 633.03 569.79 632.586 570.12C634.192 568.918 635.883 567.835 637.646 566.88C638.458 566.444 639.284 566.036 640.124 565.657C640.322 565.567 640.521 565.481 640.719 565.393C639.829 565.789 640.527 565.475 640.756 565.383C641.26 565.18 641.768 564.988 642.279 564.805C644.177 564.128 646.12 563.582 648.093 563.172C649.003 562.983 649.917 562.836 650.834 562.69C651.452 562.591 650.057 562.776 650.679 562.712C650.951 562.684 651.222 562.648 651.493 562.619C652.037 562.563 652.582 562.516 653.127 562.479C655.091 562.344 657.061 562.337 659.026 562.457C660.008 562.517 660.985 562.617 661.961 562.733C660.977 562.616 662.105 562.759 662.451 562.816C662.989 562.905 663.525 563.003 664.059 563.111C665.979 563.498 667.87 564.015 669.719 564.66C670.179 564.821 670.637 564.99 671.092 565.168C671.345 565.266 671.596 565.369 671.847 565.47C671.72 565.419 671.019 565.102 671.729 565.425C672.618 565.828 673.499 566.243 674.36 566.702C676.127 567.655 677.821 568.736 679.431 569.934C679.921 570.294 678.88 569.477 679.344 569.871C679.552 570.047 679.769 570.213 679.977 570.388C680.313 570.668 680.643 570.955 680.967 571.247C681.798 571.996 682.595 572.782 683.362 573.596C684.062 574.34 684.736 575.107 685.383 575.898C685.374 575.887 686.111 576.802 685.719 576.309C685.39 575.895 685.855 576.489 685.929 576.588C686.32 577.112 686.699 577.643 687.068 578.183C688.268 579.948 689.352 581.789 690.315 583.694C690.772 584.595 691.203 585.509 691.609 586.435C691.699 586.638 692.008 587.389 691.673 586.572C691.764 586.793 691.854 587.014 691.943 587.236C692.166 587.792 692.381 588.352 692.587 588.914C694.075 593.045 695.216 597.292 695.998 601.612C696.204 602.709 696.392 603.809 696.563 604.912C696.64 605.405 696.713 605.897 696.783 606.39C696.781 606.378 696.945 607.593 696.86 606.938C696.784 606.355 696.915 607.378 696.928 607.488C697.215 609.788 697.441 612.095 697.624 614.406C697.984 618.938 698.176 623.481 698.314 628.024C698.664 639.551 698.962 651.079 699.286 662.607L701.266 733.213L703.246 803.82L703.492 812.585C703.492 813.712 703.94 814.793 704.737 815.59C705.534 816.387 706.615 816.835 707.742 816.835C708.869 816.835 709.95 816.387 710.747 815.59C711.544 814.793 711.992 813.712 711.992 812.585L709.957 740.03L707.935 667.963L706.918 631.686C706.645 621.972 706.254 612.269 704.759 602.653C702.006 584.943 694.007 566.532 676.907 558.49C660.936 550.979 641.17 552.721 627.177 563.643C625.628 564.848 624.172 566.168 622.821 567.592C622.024 568.389 621.577 569.47 621.577 570.597C621.577 571.724 622.024 572.805 622.821 573.602C623.618 574.399 624.699 574.847 625.826 574.847C626.954 574.847 628.035 574.399 628.832 573.602L628.831 573.602Z" fill="#00BFA6"/>
<path id="Vector_23" d="M660.82 707.445C659.568 707.447 658.368 707.945 657.483 708.83C656.598 709.715 656.1 710.915 656.098 712.167L665.54 855.653C665.535 856.278 665.653 856.897 665.888 857.476C666.123 858.055 666.47 858.582 666.909 859.026C667.347 859.471 667.87 859.824 668.446 860.066C669.022 860.308 669.64 860.434 670.264 860.437H747.704C748.956 860.435 750.157 859.937 751.042 859.052C751.927 858.167 752.425 856.967 752.426 855.715L761.872 712.105C761.857 710.863 761.353 709.677 760.468 708.804C759.584 707.932 758.391 707.443 757.148 707.445H660.82Z" fill="#E6E6E6"/>
<path id="Vector_24" d="M668.296 714.528C667.649 714.528 667.01 714.661 666.417 714.918C665.823 715.176 665.289 715.552 664.848 716.025C664.406 716.497 664.066 717.055 663.849 717.664C663.632 718.273 663.542 718.92 663.585 719.565L672.268 848.947C672.351 850.141 672.883 851.259 673.757 852.077C674.631 852.894 675.782 853.351 676.979 853.354H740.989C742.186 853.351 743.337 852.894 744.211 852.077C745.085 851.259 745.617 850.141 745.7 848.947L754.383 719.565C754.427 718.92 754.337 718.273 754.12 717.664C753.902 717.055 753.562 716.497 753.121 716.025C752.679 715.552 752.145 715.176 751.552 714.918C750.959 714.661 750.319 714.528 749.672 714.528H668.296Z" fill="#00BFA6"/>
<path id="icecube-1" d="M696.707 736.721C696.206 736.722 695.726 736.921 695.372 737.275C695.018 737.629 694.819 738.109 694.818 738.61V748.998C694.819 749.499 695.018 749.979 695.372 750.333C695.726 750.687 696.206 750.887 696.707 750.887H712.762C713.263 750.887 713.743 750.687 714.097 750.333C714.451 749.979 714.65 749.499 714.651 748.998V738.61C714.65 738.109 714.451 737.629 714.097 737.275C713.743 736.921 713.263 736.722 712.762 736.721H696.707Z" fill="#E6E6E6"/>
<path id="icecube-2" d="M714.651 764.109C714.15 764.109 713.67 764.308 713.316 764.663C712.962 765.017 712.763 765.497 712.762 765.997V776.386C712.763 776.886 712.962 777.367 713.316 777.721C713.67 778.075 714.15 778.274 714.651 778.275H730.705C731.206 778.274 731.686 778.075 732.04 777.721C732.394 777.367 732.593 776.886 732.594 776.386V765.997C732.593 765.497 732.394 765.017 732.04 764.663C731.686 764.308 731.206 764.109 730.705 764.109H714.651Z" fill="#E6E6E6"/>
<path id="icecube-3" d="M697.652 786.774C697.151 786.775 696.671 786.974 696.317 787.328C695.963 787.682 695.763 788.162 695.763 788.663V799.051C695.763 799.552 695.963 800.032 696.317 800.386C696.671 800.74 697.151 800.939 697.652 800.94H713.706C714.207 800.939 714.687 800.74 715.041 800.386C715.395 800.032 715.594 799.552 715.595 799.051V788.663C715.594 788.162 715.395 787.682 715.041 787.328C714.687 786.974 714.207 786.775 713.706 786.774H697.652Z" fill="#E6E6E6"/>
<path id="Vector_25" d="M392.64 732.15C397.554 733.78 401.015 737.961 403.895 742.059C406.863 746.284 409.584 750.871 413.64 754.171C415.344 755.652 417.343 756.754 419.505 757.404C421.667 758.054 423.942 758.236 426.18 757.94C430.628 757.27 434.398 754.161 435.075 749.574C435.966 743.535 431.739 737.945 428.031 733.648L427.029 736.067C432.937 736.704 438.074 740.072 443.484 742.24C448.667 744.317 454.798 745.45 459.976 742.742C463.95 740.664 466.427 736.508 467.266 732.199C468.125 727.498 467.407 722.644 465.223 718.393C462.467 712.758 457.946 708.203 453.562 703.816L452.184 706.184C458.702 707.163 465.97 708.075 471.626 703.887C473.889 702.292 475.502 699.938 476.171 697.252C476.748 694.284 476.257 691.209 474.786 688.568C471.812 682.775 466.198 678.692 461.166 674.807C449.425 665.73 436.704 657.997 423.241 651.754C421.598 650.991 420.157 653.432 421.811 654.201C433.344 659.557 444.34 666.002 454.648 673.449C459.607 677.034 464.848 680.732 468.98 685.28C472.489 689.142 475.684 695.048 471.853 699.821C467.345 705.437 459.19 704.391 452.937 703.452C452.638 703.379 452.323 703.406 452.04 703.526C451.757 703.647 451.52 703.856 451.365 704.122C451.21 704.388 451.145 704.697 451.18 705.003C451.215 705.309 451.348 705.595 451.559 705.82C458.094 712.358 465.855 720.207 464.718 730.269C464.287 734.083 462.477 737.98 459.083 739.997C454.468 742.739 448.697 741.328 444.05 739.432C438.407 737.13 433.208 733.9 427.029 733.233C425.698 733.09 425.312 734.823 426.027 735.652C429.026 739.126 432.622 743.646 432.356 748.517C432.133 752.592 428.579 755.031 424.768 755.261C415.074 755.847 410.18 745.755 405.265 739.136C402.155 734.948 398.463 731.099 393.393 729.418C391.659 728.842 390.915 731.578 392.64 732.15H392.64Z" fill="#00BFA6"/>
</g>
<g id="box-front">
<path id="Vector_26" d="M892.312 517.916L886.037 652.712L883.5 707.179L874.379 902.84L330.807 987V585.519L892.312 517.916Z" fill="#975656"/>
<path id="Vector_27" d="M88.6881 441.346L193.438 427.45L414.277 546.202L334.258 586.208L88.6881 441.346Z" fill="#975656"/>
<path id="Vector_28" opacity="0.05" d="M88.6881 441.346L193.438 427.45L414.277 546.202L334.258 586.208L88.6881 441.346Z" fill="black"/>
<path id="Vector_29" d="M886.037 652.712L883.5 707.179L330.807 764.008L88.6881 653.718V600.7L330.807 706.388L886.037 652.712Z" fill="#00BFA6"/>
<path id="Vector_30" opacity="0.1" d="M330.807 706.388V764.008L88.6881 653.718V600.7L330.807 706.388Z" fill="black"/>
<path id="Vector_31" opacity="0.1" d="M334.258 586.208V986.312L88.6881 813.853V441.593L334.258 586.208Z" fill="black"/>
</g>
<g id="stars">
<path id="Vector_32" opacity="0.1" d="M336.261 476.113L322.355 468.667C321.785 468.368 321.136 468.255 320.499 468.343C319.861 468.431 319.268 468.717 318.801 469.16L307.432 480.078C306.962 480.511 306.369 480.788 305.736 480.87C305.102 480.952 304.459 480.834 303.895 480.534C303.33 480.234 302.874 479.766 302.587 479.195C302.301 478.624 302.199 477.977 302.296 477.346L305.08 461.827C305.188 461.193 305.096 460.542 304.816 459.964C304.536 459.386 304.082 458.909 303.518 458.601L289.612 451.155C289.061 450.839 288.622 450.36 288.354 449.784C288.086 449.208 288.002 448.563 288.115 447.938C288.227 447.313 288.53 446.738 288.982 446.291C289.434 445.845 290.013 445.549 290.639 445.444L306.261 443.298C306.898 443.206 307.49 442.916 307.954 442.471C308.418 442.025 308.731 441.445 308.849 440.812L311.622 425.293C311.752 424.67 312.071 424.103 312.536 423.669C313.001 423.235 313.589 422.955 314.219 422.868C314.849 422.782 315.49 422.892 316.055 423.185C316.62 423.477 317.081 423.937 317.373 424.502L324.245 438.696C324.53 439.272 324.989 439.744 325.556 440.046C326.123 440.348 326.771 440.465 327.408 440.381L343.019 438.234C343.65 438.165 344.288 438.293 344.843 438.6C345.399 438.907 345.847 439.379 346.124 439.95C346.402 440.521 346.496 441.164 346.395 441.791C346.293 442.418 346 442.998 345.556 443.452L334.176 454.37C333.716 454.82 333.408 455.402 333.296 456.036C333.183 456.67 333.272 457.322 333.55 457.903L340.421 472.097C340.675 472.674 340.745 473.315 340.624 473.933C340.502 474.551 340.194 475.118 339.741 475.555C339.287 475.993 338.711 476.281 338.089 476.381C337.466 476.481 336.829 476.387 336.261 476.113Z" fill="black"/>
<path id="Vector_33" d="M334.197 473.238L321.872 466.644C321.368 466.374 320.792 466.271 320.226 466.348C319.659 466.426 319.132 466.68 318.719 467.075L308.633 476.761C308.222 477.155 307.696 477.41 307.131 477.488C306.566 477.565 305.991 477.462 305.488 477.193C304.986 476.924 304.581 476.503 304.332 475.99C304.084 475.477 304.004 474.898 304.104 474.337L306.569 460.574C306.671 460.011 306.592 459.43 306.343 458.915C306.093 458.4 305.687 457.977 305.182 457.708L292.858 451.114C292.352 450.846 291.945 450.425 291.694 449.91C291.444 449.396 291.363 448.816 291.464 448.253C291.564 447.69 291.841 447.173 292.254 446.777C292.667 446.381 293.195 446.127 293.761 446.05L307.616 444.14C308.181 444.062 308.707 443.808 309.119 443.413C309.53 443.018 309.806 442.503 309.907 441.942L312.372 428.169C312.459 427.592 312.732 427.059 313.147 426.65C313.563 426.241 314.1 425.977 314.678 425.899C315.256 425.82 315.844 425.931 316.354 426.214C316.864 426.497 317.268 426.938 317.507 427.47L323.608 440.052C323.855 440.568 324.26 440.991 324.765 441.26C325.269 441.53 325.846 441.632 326.412 441.552L340.256 439.652C340.822 439.572 341.398 439.673 341.902 439.942C342.406 440.21 342.812 440.631 343.062 441.144C343.312 441.658 343.393 442.237 343.293 442.799C343.193 443.362 342.917 443.878 342.506 444.274L332.338 453.938C331.932 454.328 331.66 454.835 331.558 455.388C331.457 455.941 331.532 456.512 331.773 457.02L337.874 469.612C338.14 470.124 338.236 470.709 338.146 471.28C338.056 471.85 337.786 472.377 337.374 472.783C336.963 473.189 336.432 473.452 335.86 473.533C335.289 473.615 334.705 473.512 334.197 473.238V473.238Z" fill="#BABEB7"/>
<path id="Vector_34" opacity="0.1" d="M848.046 872.048L839.459 867.446C839.109 867.256 838.707 867.183 838.312 867.237C837.917 867.29 837.549 867.468 837.261 867.744L830.226 874.502C829.94 874.779 829.573 874.957 829.178 875.012C828.784 875.066 828.382 874.994 828.031 874.805C827.681 874.617 827.399 874.322 827.227 873.963C827.054 873.604 827.001 873.199 827.073 872.808L828.788 863.215C828.859 862.823 828.804 862.419 828.63 862.061C828.457 861.703 828.174 861.409 827.823 861.222L819.226 856.621C818.876 856.431 818.595 856.136 818.423 855.778C818.251 855.419 818.196 855.015 818.266 854.624C818.337 854.232 818.529 853.873 818.816 853.597C819.103 853.321 819.469 853.143 819.863 853.088L829.517 851.763C829.912 851.707 830.28 851.528 830.567 851.251C830.855 850.975 831.048 850.615 831.12 850.222L832.835 840.629C832.907 840.238 833.1 839.88 833.387 839.606C833.674 839.331 834.04 839.154 834.434 839.099C834.827 839.045 835.228 839.116 835.579 839.302C835.93 839.488 836.213 839.78 836.388 840.136L840.63 848.918C840.809 849.272 841.094 849.562 841.446 849.746C841.798 849.931 842.199 850 842.592 849.945L852.246 848.62C852.641 848.563 853.044 848.633 853.397 848.82C853.749 849.007 854.033 849.302 854.207 849.661C854.381 850.02 854.436 850.426 854.364 850.818C854.292 851.211 854.097 851.57 853.807 851.845L846.782 858.613C846.494 858.89 846.3 859.25 846.229 859.642C846.157 860.035 846.21 860.441 846.382 860.801L850.634 869.572C850.801 869.931 850.852 870.332 850.78 870.721C850.707 871.11 850.514 871.466 850.228 871.739C849.943 872.013 849.578 872.189 849.187 872.245C848.795 872.3 848.396 872.231 848.046 872.048V872.048Z" fill="black"/>
<path id="Vector_35" d="M846.782 870.271L839.151 866.162C838.841 865.996 838.486 865.932 838.137 865.98C837.788 866.028 837.464 866.185 837.21 866.429L830.976 872.417C830.721 872.66 830.396 872.817 830.046 872.864C829.697 872.912 829.342 872.848 829.032 872.681C828.721 872.515 828.471 872.255 828.316 871.939C828.162 871.622 828.112 871.265 828.172 870.918L829.692 862.403C829.755 862.057 829.707 861.699 829.554 861.381C829.401 861.064 829.15 860.803 828.839 860.637L821.219 856.559C820.927 856.384 820.696 856.123 820.557 855.813C820.417 855.503 820.375 855.158 820.436 854.823C820.497 854.489 820.659 854.181 820.9 853.94C821.141 853.7 821.449 853.539 821.784 853.478L830.339 852.297C830.689 852.252 831.015 852.096 831.27 851.852C831.525 851.608 831.696 851.289 831.756 850.941L833.287 842.426C833.35 842.079 833.521 841.761 833.776 841.517C834.031 841.272 834.357 841.115 834.707 841.067C835.057 841.02 835.413 841.084 835.724 841.25C836.035 841.417 836.286 841.677 836.44 841.995L840.199 849.78C840.354 850.098 840.605 850.358 840.917 850.524C841.228 850.69 841.585 850.753 841.935 850.705L850.5 849.524C850.85 849.476 851.206 849.54 851.518 849.707C851.829 849.874 852.079 850.135 852.233 850.453C852.387 850.771 852.437 851.13 852.374 851.477C852.312 851.825 852.141 852.144 851.887 852.389L845.652 858.377C845.397 858.62 845.226 858.939 845.163 859.286C845.1 859.633 845.149 859.991 845.303 860.308L849.073 868.093C849.222 868.41 849.268 868.766 849.204 869.11C849.14 869.454 848.968 869.769 848.715 870.01C848.461 870.251 848.138 870.407 847.791 870.453C847.444 870.5 847.091 870.436 846.782 870.271V870.271Z" fill="#BABEB7"/>
<path id="Vector_36" opacity="0.1" d="M399.672 666.475L391.086 661.874C390.733 661.688 390.331 661.618 389.937 661.673C389.543 661.729 389.176 661.906 388.888 662.182L381.852 668.93C381.566 669.206 381.199 669.384 380.804 669.439C380.41 669.493 380.008 669.421 379.658 669.232C379.307 669.044 379.025 668.749 378.853 668.39C378.681 668.031 378.627 667.626 378.699 667.235L380.415 657.642C380.484 657.25 380.427 656.847 380.254 656.489C380.081 656.132 379.799 655.838 379.449 655.649L370.853 651.048C370.501 650.861 370.218 650.567 370.044 650.209C369.87 649.85 369.815 649.446 369.886 649.054C369.956 648.662 370.15 648.303 370.438 648.028C370.726 647.753 371.095 647.577 371.489 647.525L381.144 646.19C381.538 646.136 381.905 645.959 382.193 645.684C382.48 645.409 382.674 645.051 382.746 644.659L384.461 635.056C384.535 634.666 384.729 634.309 385.017 634.036C385.304 633.763 385.671 633.587 386.064 633.533C386.457 633.48 386.857 633.552 387.207 633.738C387.557 633.925 387.84 634.217 388.015 634.573L392.267 643.345C392.441 643.701 392.724 643.992 393.075 644.177C393.426 644.361 393.826 644.43 394.218 644.372L403.873 643.037C404.268 642.984 404.669 643.057 405.02 643.246C405.371 643.435 405.653 643.73 405.826 644.088C405.999 644.447 406.054 644.852 405.984 645.244C405.913 645.636 405.721 645.996 405.434 646.272L398.409 653.02C398.117 653.304 397.927 653.675 397.865 654.078C397.804 654.48 397.876 654.891 398.07 655.249L402.311 664.02C402.484 664.383 402.536 664.792 402.461 665.186C402.385 665.581 402.186 665.941 401.892 666.215C401.597 666.489 401.223 666.662 400.824 666.708C400.425 666.755 400.021 666.673 399.672 666.475V666.475Z" fill="black"/>
<path id="Vector_37" d="M398.409 664.708L390.788 660.6C390.475 660.436 390.119 660.373 389.769 660.421C389.419 660.469 389.093 660.625 388.836 660.867L382.602 666.855C382.347 667.098 382.022 667.254 381.673 667.302C381.324 667.349 380.969 667.285 380.658 667.119C380.347 666.953 380.097 666.693 379.943 666.376C379.788 666.06 379.738 665.702 379.798 665.355L381.318 656.851C381.383 656.504 381.336 656.146 381.182 655.828C381.029 655.51 380.778 655.249 380.466 655.084L372.845 650.976C372.548 650.804 372.312 650.545 372.169 650.233C372.025 649.922 371.981 649.574 372.043 649.237C372.105 648.899 372.269 648.59 372.514 648.349C372.759 648.109 373.072 647.95 373.41 647.895L381.965 646.714C382.316 646.666 382.643 646.508 382.898 646.263C383.153 646.017 383.323 645.696 383.383 645.348L384.913 636.843C384.976 636.496 385.148 636.177 385.403 635.933C385.658 635.689 385.983 635.532 386.333 635.484C386.683 635.436 387.039 635.5 387.35 635.667C387.661 635.834 387.912 636.094 388.066 636.412L391.825 644.187C391.979 644.506 392.23 644.767 392.542 644.933C392.854 645.099 393.211 645.162 393.561 645.111L402.178 643.951C402.528 643.899 402.886 643.96 403.199 644.125C403.512 644.291 403.764 644.551 403.918 644.87C404.073 645.188 404.122 645.548 404.058 645.896C403.995 646.244 403.822 646.563 403.564 646.806L397.33 652.794C397.074 653.039 396.902 653.359 396.839 653.708C396.777 654.057 396.826 654.416 396.981 654.735L400.75 662.51C400.913 662.833 400.967 663.2 400.904 663.556C400.841 663.912 400.665 664.238 400.401 664.485C400.138 664.732 399.801 664.888 399.442 664.928C399.083 664.968 398.72 664.891 398.409 664.708V664.708Z" fill="#BABEB7"/>
<path id="Vector_38" opacity="0.1" d="M848.046 790.651L839.459 786.049C839.109 785.859 838.707 785.786 838.312 785.839C837.917 785.893 837.549 786.071 837.261 786.347L830.226 793.095C829.94 793.37 829.574 793.547 829.181 793.602C828.788 793.656 828.388 793.585 828.038 793.398C827.688 793.211 827.406 792.918 827.233 792.561C827.059 792.204 827.003 791.801 827.073 791.411L828.788 781.817C828.87 781.417 828.82 781 828.646 780.63C828.472 780.26 828.183 779.956 827.823 779.763L819.226 775.172C818.876 774.983 818.595 774.688 818.423 774.329C818.251 773.971 818.196 773.567 818.266 773.175C818.337 772.784 818.529 772.424 818.816 772.149C819.103 771.873 819.469 771.694 819.863 771.639L829.517 770.304C829.912 770.251 830.28 770.075 830.568 769.8C830.856 769.525 831.049 769.165 831.12 768.773L832.835 759.18C832.907 758.79 833.1 758.432 833.387 758.157C833.674 757.883 834.04 757.705 834.434 757.651C834.827 757.596 835.228 757.667 835.579 757.853C835.93 758.039 836.213 758.331 836.388 758.687L840.63 767.459C840.808 767.815 841.093 768.105 841.445 768.29C841.797 768.474 842.198 768.543 842.592 768.486L852.246 767.161C852.641 767.104 853.044 767.174 853.397 767.361C853.749 767.548 854.033 767.843 854.207 768.202C854.381 768.561 854.436 768.967 854.364 769.359C854.292 769.752 854.097 770.111 853.807 770.386L846.782 777.134C846.494 777.41 846.3 777.77 846.229 778.163C846.157 778.556 846.21 778.961 846.382 779.322L850.634 788.093C850.833 788.454 850.909 788.869 850.851 789.277C850.792 789.685 850.602 790.063 850.308 790.352C850.015 790.642 849.636 790.828 849.227 790.882C848.819 790.935 848.404 790.854 848.046 790.651Z" fill="black"/>
<path id="Vector_39" d="M846.782 788.874L839.151 784.765C838.841 784.597 838.486 784.532 838.137 784.58C837.788 784.628 837.463 784.787 837.21 785.032L830.976 791.02C830.721 791.263 830.396 791.42 830.046 791.467C829.697 791.514 829.342 791.45 829.032 791.284C828.721 791.118 828.471 790.858 828.316 790.542C828.162 790.225 828.112 789.868 828.172 789.521L829.692 781.006C829.755 780.659 829.707 780.301 829.554 779.984C829.401 779.666 829.15 779.406 828.839 779.239L821.219 775.131C820.927 774.956 820.696 774.695 820.557 774.385C820.417 774.075 820.375 773.73 820.436 773.395C820.497 773.061 820.659 772.753 820.9 772.512C821.141 772.272 821.449 772.111 821.784 772.05L830.339 770.869C830.689 770.824 831.015 770.668 831.27 770.424C831.525 770.18 831.696 769.861 831.756 769.513L833.287 760.998C833.35 760.651 833.521 760.333 833.776 760.088C834.031 759.844 834.357 759.687 834.707 759.639C835.057 759.592 835.413 759.655 835.724 759.822C836.035 759.989 836.286 760.249 836.44 760.567L840.199 768.342C840.353 768.66 840.604 768.922 840.916 769.09C841.227 769.258 841.584 769.323 841.935 769.277L850.5 768.096C850.85 768.048 851.206 768.112 851.518 768.279C851.829 768.446 852.079 768.707 852.233 769.025C852.387 769.343 852.437 769.702 852.374 770.049C852.312 770.397 852.141 770.716 851.887 770.961L845.652 776.949C845.396 777.191 845.223 777.51 845.161 777.857C845.098 778.205 845.148 778.563 845.303 778.88L849.073 786.655C849.23 786.973 849.282 787.333 849.222 787.682C849.161 788.032 848.992 788.353 848.737 788.6C848.482 788.847 848.155 789.006 847.804 789.056C847.453 789.105 847.095 789.041 846.782 788.874V788.874Z" fill="#BABEB7"/>
</g>
</g>
</svg>
