<svg width="987" height="813" viewBox="0 0 987 813" fill="none" xmlns="http://www.w3.org/2000/svg">
<g id="liftoff">
<path id="land" d="M789.51 677.237V726.277C789.508 728.133 788.77 729.912 787.458 731.225C786.145 732.537 784.366 733.275 782.51 733.277H226.51C224.655 733.273 222.877 732.534 221.565 731.222C220.253 729.91 219.514 728.132 219.51 726.277V664.157C220.17 663.457 220.83 662.767 221.51 662.077C258.443 623.793 302.909 593.579 352.103 573.34C401.297 553.101 454.152 543.277 507.333 544.487C560.514 545.697 612.867 557.915 661.089 580.371C709.312 602.827 752.357 635.033 787.51 674.957C788.19 675.707 788.85 676.477 789.51 677.237Z" fill="#00BFA6"/>
<path id="backdrop" d="M606.01 139.267C605.45 138.927 604.89 138.597 604.33 138.277H545.89C545.47 138.937 545.07 139.607 544.68 140.277H607.69C607.13 139.937 606.57 139.607 606.01 139.267ZM219.51 336.737V351.637C219.76 351.657 220.02 351.657 220.27 351.667L219.77 380.307L219.51 380.167V382.987L219.72 383.097L219.51 395.107V436.507H221.51V329.987C220.95 332.147 220.284 334.397 219.51 336.737V336.737ZM606.01 139.267C605.45 138.927 604.89 138.597 604.33 138.277H545.89C545.47 138.937 545.07 139.607 544.68 140.277H607.69C607.13 139.937 606.57 139.607 606.01 139.267ZM782.51 138.277H226.51C224.654 138.279 222.875 139.017 221.563 140.33C220.25 141.642 219.512 143.421 219.51 145.277V726.277C219.514 728.132 220.253 729.91 221.565 731.222C222.877 732.534 224.655 733.273 226.51 733.277H782.51C784.366 733.275 786.145 732.537 787.458 731.225C788.77 729.912 789.508 728.133 789.51 726.277V145.277C789.508 143.421 788.77 141.642 787.458 140.329C786.145 139.017 784.366 138.279 782.51 138.277V138.277ZM787.51 726.277C787.51 727.603 786.983 728.874 786.045 729.812C785.108 730.75 783.836 731.277 782.51 731.277H226.51C225.184 731.277 223.913 730.75 222.975 729.812C222.038 728.874 221.511 727.603 221.51 726.277V145.277C221.512 143.952 222.04 142.681 222.977 141.744C223.914 140.807 225.185 140.279 226.51 140.277H782.51C783.836 140.279 785.106 140.807 786.043 141.744C786.981 142.681 787.508 143.952 787.51 145.277V726.277Z" fill="#3F3D56"/>
<g id="wavey-streaks">
<path id="Vector" d="M581.46 237.121C541.047 237.121 494.603 192.275 453.511 213.582C329.096 278.096 346.223 170.142 310.479 129.993L311.653 127.64C338.712 230.858 363.196 395.332 454.051 210.844C476.811 164.631 551.507 236.064 595.475 233.957L595.551 236.786C590.908 237.01 586.211 237.122 581.46 237.121Z" fill="#ADADAC"/>
<path id="Vector_2" d="M678.457 243.467C646.242 267.867 582.141 260.158 562.249 301.954C502.021 428.499 450.495 332.102 397.761 321.677L397.276 319.093C450.066 323.471 506.69 316.677 561.027 299.445C610.131 283.874 653.941 260.71 687.719 232.483L689.488 234.692C685.922 237.675 682.245 240.599 678.457 243.467Z" fill="#ADADAC"/>
</g>
<g id="space-rocks">
<path id="Vector_3" d="M294.893 295.591C298.785 294.085 301.091 290.668 300.043 287.961C298.994 285.253 294.99 284.28 291.098 285.786C287.206 287.293 284.9 290.709 285.948 293.417C286.996 296.124 291.001 297.098 294.893 295.591Z" fill="#E6E6E6"/>
<path id="Vector_4" d="M343.897 289.305C347.789 287.798 350.094 284.382 349.046 281.675C347.998 278.967 343.993 277.994 340.101 279.5C336.209 281.007 333.904 284.423 334.952 287.131C336 289.838 340.005 290.812 343.897 289.305Z" fill="#E6E6E6"/>
<path id="Vector_5" d="M290.643 337.399C294.535 335.893 296.841 332.477 295.793 329.769C294.745 327.062 290.74 326.088 286.848 327.595C282.956 329.101 280.65 332.517 281.698 335.225C282.747 337.932 286.751 338.906 290.643 337.399Z" fill="#E6E6E6"/>
<path id="Vector_6" d="M276.467 355.841C278.252 355.419 279.207 352.995 278.6 350.429C277.992 347.862 276.052 346.124 274.267 346.546C272.481 346.969 271.526 349.392 272.134 351.959C272.741 354.526 274.681 356.264 276.467 355.841Z" fill="#E6E6E6"/>
<path id="Vector_7" d="M276.175 387.064C277.961 386.641 278.916 384.218 278.308 381.651C277.701 379.084 275.761 377.346 273.975 377.769C272.19 378.192 271.235 380.615 271.842 383.182C272.45 385.748 274.39 387.486 276.175 387.064Z" fill="#E6E6E6"/>
<path id="Vector_8" d="M319.184 322.394C320.97 321.972 321.925 319.549 321.317 316.982C320.71 314.415 318.77 312.677 316.984 313.1C315.199 313.522 314.244 315.946 314.851 318.512C315.459 321.079 317.399 322.817 319.184 322.394Z" fill="#E6E6E6"/>
<path id="Vector_9" d="M293.375 316.127C295.161 315.705 296.116 313.281 295.508 310.715C294.901 308.148 292.961 306.41 291.175 306.832C289.39 307.255 288.435 309.678 289.042 312.245C289.65 314.812 291.59 316.55 293.375 316.127Z" fill="#E6E6E6"/>
<path id="Vector_10" d="M320.731 287.376C322.516 286.954 323.471 284.53 322.864 281.964C322.256 279.397 320.316 277.659 318.531 278.082C316.745 278.504 315.79 280.928 316.398 283.494C317.005 286.061 318.945 287.799 320.731 287.376Z" fill="#E6E6E6"/>
<path id="Vector_11" d="M723.361 436.643C727.393 435.569 730.057 432.424 729.31 429.619C728.563 426.814 724.688 425.41 720.655 426.484C716.622 427.558 713.958 430.703 714.706 433.508C715.453 436.314 719.328 437.717 723.361 436.643Z" fill="#E6E6E6"/>
<path id="Vector_12" d="M673.964 437.559C677.997 436.485 680.661 433.34 679.913 430.534C679.166 427.729 675.291 426.325 671.258 427.399C667.226 428.473 664.562 431.618 665.309 434.424C666.056 437.229 669.931 438.633 673.964 437.559Z" fill="#E6E6E6"/>
<path id="Vector_13" d="M732.136 395.546C736.169 394.472 738.832 391.327 738.085 388.522C737.338 385.716 733.463 384.313 729.43 385.387C725.397 386.461 722.734 389.606 723.481 392.411C724.228 395.217 728.103 396.62 732.136 395.546Z" fill="#E6E6E6"/>
<path id="Vector_14" d="M746.705 378.077C748.526 377.851 749.739 375.546 749.414 372.928C749.09 370.311 747.35 368.372 745.53 368.598C743.709 368.823 742.496 371.128 742.82 373.746C743.145 376.363 744.884 378.302 746.705 378.077Z" fill="#E6E6E6"/>
<path id="Vector_15" d="M750.393 347.071C752.214 346.845 753.427 344.54 753.102 341.923C752.778 339.305 751.039 337.366 749.218 337.592C747.397 337.818 746.184 340.123 746.508 342.741C746.833 345.358 748.572 347.297 750.393 347.071Z" fill="#E6E6E6"/>
<path id="Vector_16" d="M700.601 406.675C702.422 406.449 703.635 404.144 703.31 401.527C702.986 398.909 701.246 396.97 699.425 397.196C697.605 397.422 696.392 399.727 696.716 402.344C697.041 404.962 698.78 406.901 700.601 406.675Z" fill="#E6E6E6"/>
<path id="Vector_17" d="M725.574 415.714C727.395 415.489 728.608 413.184 728.284 410.566C727.959 407.948 726.22 406.009 724.399 406.235C722.578 406.461 721.365 408.766 721.689 411.384C722.014 414.001 723.753 415.94 725.574 415.714Z" fill="#E6E6E6"/>
<path id="Vector_18" d="M695.252 441.317C697.073 441.091 698.286 438.786 697.961 436.168C697.637 433.551 695.897 431.612 694.077 431.838C692.256 432.063 691.043 434.368 691.367 436.986C691.692 439.604 693.431 441.542 695.252 441.317Z" fill="#E6E6E6"/>
<path id="Vector_19" d="M328.024 237.911C332.689 237.911 336.471 232.84 336.471 226.584C336.471 220.328 332.689 215.256 328.024 215.256C323.359 215.256 319.577 220.328 319.577 226.584C319.577 232.84 323.359 237.911 328.024 237.911Z" fill="#E6E6E6"/>
<path id="Vector_20" d="M590.024 145.911C594.689 145.911 598.471 140.84 598.471 134.584C598.471 128.328 594.689 123.256 590.024 123.256C585.359 123.256 581.577 128.328 581.577 134.584C581.577 140.84 585.359 145.911 590.024 145.911Z" fill="#E6E6E6"/>
<path id="Vector_21" d="M319.577 383.335C324.242 383.335 328.024 378.263 328.024 372.007C328.024 365.751 324.242 360.68 319.577 360.68C314.911 360.68 311.129 365.751 311.129 372.007C311.129 378.263 314.911 383.335 319.577 383.335Z" fill="#E6E6E6"/>
<path id="Vector_22" d="M405.362 283.629C401.5 286.202 397.548 280.078 401.484 277.619C405.346 275.046 409.299 281.17 405.362 283.629Z" fill="#E6E6E6"/>
<path id="Vector_23" d="M548.362 82.6292C544.5 85.2024 540.548 79.0779 544.484 76.619C548.346 74.0459 552.299 80.1704 548.362 82.6292Z" fill="#E6E6E6"/>
<path id="Vector_24" d="M632.641 201.801L630.184 201.262L630.722 198.804L629.084 198.445L628.545 200.903L626.088 200.365L625.729 202.003L628.186 202.542L627.648 204.999L629.286 205.358L629.825 202.9L632.282 203.439L632.641 201.801Z" fill="#E6E6E6"/>
<path id="Vector_25" d="M407.427 119.439C413.338 119.439 418.129 114.648 418.129 108.737C418.129 102.826 413.338 98.0348 407.427 98.0348C401.516 98.0348 396.725 102.826 396.725 108.737C396.725 114.648 401.516 119.439 407.427 119.439Z" fill="#FF6584"/>
<path id="Vector_26" d="M621.024 349.911C625.689 349.911 629.471 344.84 629.471 338.584C629.471 332.328 625.689 327.256 621.024 327.256C616.359 327.256 612.577 332.328 612.577 338.584C612.577 344.84 616.359 349.911 621.024 349.911Z" fill="#E6E6E6"/>
<path id="Vector_27" d="M665.183 516.211C669.849 516.211 673.631 511.14 673.631 504.884C673.631 498.628 669.849 493.556 665.183 493.556C660.518 493.556 656.736 498.628 656.736 504.884C656.736 511.14 660.518 516.211 665.183 516.211Z" fill="#E6E6E6"/>
<path id="Vector_28" d="M336.471 484.422C341.137 484.422 344.919 479.35 344.919 473.094C344.919 466.838 341.137 461.767 336.471 461.767C331.806 461.767 328.024 466.838 328.024 473.094C328.024 479.35 331.806 484.422 336.471 484.422Z" fill="#E6E6E6"/>
</g>
<g id="rocket">
<path id="Vector_29" d="M485.708 95.1905C473.65 95.5329 464.451 116.4 464.672 124.542L465.079 139.284L508.738 138.078L508.331 123.337C508.103 115.194 497.766 94.867 485.708 95.1905Z" fill="#3F3D56"/>
<path id="Vector_30" d="M511.705 653.409L491.872 653.957C488.86 654.112 485.88 653.276 483.387 651.578C481.233 649.976 480.245 647.81 480.678 645.635L484.581 626.023C485.316 622.323 489.85 619.525 495.361 619.373L506.313 619.071C511.824 618.919 516.505 621.461 517.444 625.115L522.423 644.483C522.975 646.63 522.108 648.847 520.046 650.566C517.651 652.399 514.721 653.398 511.705 653.409V653.409Z" fill="#3F3D56"/>
<path id="Vector_31" d="M520.548 189.036L456.099 190.816L468.245 630.664L532.694 628.884L520.548 189.036Z" fill="#E6E6E6"/>
<path id="Vector_32" d="M494.76 401.949L494.455 386.094L498.613 385.991L498.918 401.795L502.687 632.141L498.528 632.256" fill="#3F3D56"/>
<path id="Vector_33" d="M533.237 229.292L445.911 231.703C444.389 222.5 446.358 179.553 454.22 169.951L456.374 158.489L516.671 156.824L519.825 167.995C528.484 175.363 532.949 218.426 533.237 229.292Z" fill="#E6E6E6"/>
<path id="Vector_34" d="M518.577 158.176L456.354 159.894C454.057 159.958 452.161 158.752 452.118 157.201C452.113 156.978 452.145 156.755 452.215 156.543L461.88 126.767C462.294 125.492 463.941 124.556 465.864 124.503L507.129 123.364C509.051 123.31 510.748 124.154 511.232 125.405L522.525 154.601C523.103 156.094 521.769 157.648 519.545 158.072C519.226 158.133 518.902 158.167 518.577 158.176V158.176Z" fill="#E6E6E6"/>
<path id="Vector_35" d="M462.492 399.926C461.93 399.686 461.4 399.379 460.911 399.011C460.211 398.52 459.633 397.876 459.221 397.127C458.808 396.378 458.573 395.544 458.532 394.69L456.271 312.812C456.178 309.423 459.497 306.572 463.669 306.456L519.372 304.918C523.545 304.802 527.015 307.467 527.109 310.856L529.37 392.734C529.377 393.589 529.187 394.434 528.817 395.205C528.447 395.976 527.905 396.651 527.233 397.18C525.745 398.392 523.891 399.065 521.972 399.09L466.269 400.628C464.974 400.671 463.685 400.432 462.492 399.926Z" fill="#3F3D56"/>
<path id="Vector_36" d="M498.145 152.907L479.245 153.429C475.597 153.529 472.513 149.409 472.371 144.245C472.228 139.08 475.08 134.796 478.727 134.695L497.627 134.173C501.274 134.072 504.358 138.193 504.501 143.357C504.644 148.522 501.792 152.806 498.145 152.907Z" fill="#00BFA6"/>
<path id="Vector_37" d="M590.39 499.566C588.137 499.626 585.953 498.789 584.316 497.24C582.679 495.691 581.723 493.557 581.659 491.304L580.996 467.313C580.935 465.06 581.772 462.876 583.321 461.24C584.87 459.604 587.006 458.65 589.258 458.587C591.511 458.525 593.696 459.36 595.333 460.908C596.97 462.456 597.926 464.591 597.99 466.844L598.652 490.835C598.712 493.087 597.875 495.272 596.326 496.909C594.777 498.546 592.643 499.501 590.39 499.566Z" fill="#3F3D56"/>
<path id="Vector_38" d="M520.268 215.256L557.93 244.524L561.896 306.821L517.19 289.577L520.268 215.256Z" fill="#E6E6E6"/>
<path id="Vector_39" d="M463.372 215.256L425.71 244.524L421.744 306.821L466.45 289.577L463.372 215.256Z" fill="#E6E6E6"/>
<path id="Vector_40" d="M484.625 169.825L484.32 153.97L488.478 153.867L488.783 169.672L492.552 200.018L488.393 200.133" fill="#3F3D56"/>
<path id="Vector_41" d="M450.039 654.694L430.207 655.242C427.194 655.397 424.214 654.561 421.721 652.863C419.567 651.261 418.579 649.095 419.013 646.92L422.915 627.308C423.651 623.608 428.185 620.81 433.695 620.658L444.648 620.356C450.158 620.204 454.839 622.746 455.778 626.4L460.757 645.768C461.31 647.915 460.442 650.132 458.381 651.851C455.985 653.684 453.055 654.683 450.039 654.694V654.694Z" fill="#3F3D56"/>
<path id="Vector_42" d="M570.669 654.134L550.837 654.681C547.825 654.836 544.844 654.001 542.351 652.302C540.198 650.7 539.21 648.535 539.643 646.36L543.545 626.747C544.281 623.047 548.815 620.25 554.325 620.098L565.278 619.795C570.788 619.643 575.47 622.186 576.408 625.84L581.387 645.207C581.94 647.355 581.073 649.572 579.011 651.29C576.615 653.123 573.686 654.122 570.669 654.134V654.134Z" fill="#3F3D56"/>
<path id="Vector_43" d="M381.174 487.629C380.268 487.239 379.522 486.551 379.06 485.679C378.598 484.807 378.448 483.804 378.634 482.835C378.82 481.866 379.331 480.989 380.083 480.351C380.835 479.712 381.782 479.349 382.769 479.322L608.236 473.096C608.805 473.08 609.371 473.176 609.902 473.379C610.433 473.582 610.919 473.888 611.332 474.278C611.745 474.669 612.078 475.137 612.31 475.657C612.542 476.176 612.669 476.735 612.685 477.304V477.304C612.716 478.452 612.289 479.565 611.5 480.399C610.711 481.233 609.624 481.72 608.476 481.753L608.476 481.752L383.008 487.978C382.378 487.997 381.752 487.878 381.174 487.629Z" fill="#3F3D56"/>
<path id="Vector_44" d="M464.383 412.989L399.934 414.768L405.943 632.366L470.392 630.586L464.383 412.989Z" fill="#E6E6E6"/>
<path id="Vector_45" d="M466.018 409.079L453.629 442.828L453.64 596.587L468.736 600.916L466.018 409.079Z" fill="#CCCCCC"/>
<path id="Vector_46" d="M431.823 356.122C419.765 356.464 410.566 377.331 410.787 385.474L411.194 400.215L454.853 399.01L454.446 384.268C454.217 376.126 443.88 355.798 431.823 356.122Z" fill="#3F3D56"/>
<path id="Vector_47" d="M400.77 504.881C398.517 504.94 396.333 504.104 394.696 502.555C393.059 501.006 392.103 498.871 392.039 496.619L391.376 472.628C391.314 470.374 392.149 468.188 393.699 466.551C395.248 464.913 397.385 463.959 399.638 463.896C401.892 463.834 404.078 464.67 405.715 466.219C407.352 467.769 408.307 469.905 408.37 472.158L409.032 496.149C409.092 498.402 408.255 500.586 406.706 502.223C405.157 503.86 403.023 504.816 400.77 504.881V504.881Z" fill="#3F3D56"/>
<path id="Vector_48" d="M417.125 415.284L416.82 399.429L420.978 399.326L421.283 415.13L425.052 645.476L420.893 645.591" fill="#3F3D56"/>
<path id="Vector_49" d="M471.773 452.361L397.035 454.425C389.896 445.719 389.248 408.632 404.146 401.574L409.988 391.653L455.03 389.454L460.295 399.9C467.705 406.205 471.526 443.061 471.773 452.361Z" fill="#E6E6E6"/>
<path id="Vector_50" d="M443.643 434.573L424.743 435.095C421.096 435.196 417.995 430.464 417.831 424.549C417.668 418.634 420.503 413.738 424.15 413.637L443.05 413.115C446.697 413.015 449.798 417.746 449.962 423.662C450.125 429.577 447.29 434.473 443.643 434.573Z" fill="#00BFA6"/>
<path id="Vector_51" d="M407.043 541.568L368.084 569.088L361.278 631.138L406.726 615.953L407.043 541.568Z" fill="#E6E6E6"/>
<path id="Vector_52" d="M588.794 410.324L524.344 412.103L530.353 629.701L594.802 627.921L588.794 410.324Z" fill="#E6E6E6"/>
<path id="Vector_53" d="M525.888 409.806L539.149 443.222L543.128 596.93L528.149 601.649L525.888 409.806Z" fill="#CCCCCC"/>
<path id="Vector_54" d="M554.975 353.492C542.918 353.834 533.718 374.701 533.939 382.844L534.346 397.585L578.005 396.38L577.598 381.638C577.37 373.495 567.033 353.168 554.975 353.492Z" fill="#3F3D56"/>
<path id="Vector_55" d="M567.459 420.247L567.154 404.392L571.312 404.288L571.617 420.093L575.386 650.439L571.227 650.554" fill="#3F3D56"/>
<path id="Vector_56" d="M594.926 449.731L520.187 451.794C518.884 443.918 520.57 407.162 527.298 398.943L533.14 389.023L578.183 386.824L583.447 397.269C596.746 398.353 601.397 434.473 594.926 449.731Z" fill="#E6E6E6"/>
<path id="Vector_57" d="M566.887 435.254L547.987 435.776C544.34 435.877 541.218 430.402 541.03 423.574C540.841 416.746 543.656 411.108 547.303 411.007L566.203 410.485C569.85 410.384 572.971 415.859 573.16 422.687C573.348 429.515 570.534 435.153 566.887 435.254Z" fill="#00BFA6"/>
<path id="Vector_58" d="M591.978 525.662L629.641 554.93L633.607 617.227L588.901 599.983L591.978 525.662Z" fill="#E6E6E6"/>
</g>
<g id="disks">
<path id="disk-2" d="M279.95 567.595C269.704 567.595 263.043 565.049 260.095 559.988C254.281 550.007 264.018 532.494 289.036 507.937L291.137 510.077C267.899 532.89 257.795 550.078 262.687 558.478C265.782 563.79 274.995 565.695 289.335 563.982C303.571 562.283 322.436 557.217 345.407 548.927C392.698 531.86 452.03 503.071 512.472 467.863C572.912 432.656 627.222 395.246 665.399 362.528C672.731 356.242 679.386 350.195 685.178 344.556C692.781 337.335 699.795 329.517 706.154 321.179C714.717 309.552 717.607 300.598 714.512 295.284C709.342 286.41 687.624 287.244 653.355 297.637L652.485 294.766C689.251 283.617 710.993 283.283 717.104 293.775C720.901 300.293 718.03 310.112 708.57 322.958C702.114 331.429 694.992 339.37 687.271 346.706C681.434 352.389 674.732 358.478 667.351 364.805C629.041 397.639 574.574 435.159 513.982 470.454C453.388 505.751 393.882 534.622 346.426 551.749C323.241 560.116 304.152 565.235 289.691 566.96C286.459 567.363 283.207 567.575 279.95 567.595V567.595Z" fill="#3F3D56"/>
<path id="disk-1" d="M815.651 599.237C802.739 599.237 788.587 598.749 773.194 597.773C693.581 592.718 590.457 575.141 482.818 548.281C375.181 521.422 275.888 488.487 203.233 455.547C167.84 439.5 140.677 424.31 122.498 410.399C103.251 395.672 94.8316 382.835 97.4737 372.247C102.622 351.618 148.205 347.104 185.538 346.951L185.55 349.951C134.282 350.162 104.037 358.338 100.385 372.973C95.733 391.613 133.672 420.714 204.472 452.814C276.967 485.683 376.077 518.554 483.545 545.371C591.012 572.187 693.946 589.734 773.385 594.779C850.963 599.707 898.128 591.842 902.779 573.201C906.641 557.725 881.181 534.926 831.09 509.003L832.469 506.339C868.866 525.175 911.114 552.19 905.691 573.928C903.048 584.517 889.585 591.892 865.675 595.85C852.046 598.106 835.305 599.237 815.651 599.237Z" fill="#00BFA6"/>
</g>
</g>
</svg>
